<svg width="15" height="14" viewBox="0 0 15 14" fill="none" xmlns="http://www.w3.org/2000/svg">
<path d="M4.82966 0.3837C3.37861 0.874671 2.12724 1.80655 1.25933 3.04246C0.391428 4.27837 -0.0472567 5.75317 0.00771507 7.25022C0.0626868 8.74728 0.608417 10.1877 1.56475 11.3599C2.52108 12.5321 3.8376 13.3742 5.32093 13.7627C6.52351 14.0654 7.78345 14.0786 8.99245 13.8014C10.0877 13.5615 11.1003 13.0482 11.931 12.3119C12.7957 11.5222 13.4233 10.5175 13.7464 9.40595C14.0974 8.19714 14.1599 6.92595 13.929 5.68993H7.17598V8.42217H11.0869C11.0087 8.85794 10.8412 9.27385 10.5944 9.64501C10.3476 10.0162 10.0266 10.335 9.65051 10.5823C9.17301 10.8905 8.63464 11.0978 8.07004 11.1909C7.50382 11.2936 6.92303 11.2936 6.35681 11.1909C5.78288 11.0753 5.23997 10.8443 4.76272 10.5126C3.99591 9.98315 3.42013 9.23102 3.11757 8.36352C2.80997 7.47975 2.80997 6.52168 3.11757 5.63792C3.33294 5.01845 3.68898 4.45443 4.15912 3.98795C4.69713 3.44432 5.37827 3.05573 6.1278 2.86482C6.87734 2.67391 7.6663 2.68804 8.40814 2.90568C8.98769 3.07911 9.51764 3.38228 9.95572 3.79097C10.3967 3.36308 10.8369 2.93408 11.2764 2.50398C11.5033 2.2727 11.7506 2.05248 11.9741 1.81566C11.3053 1.2087 10.5204 0.736384 9.66413 0.425751C8.10487 -0.126462 6.39876 -0.141302 4.82966 0.3837Z" fill="white"/>
<path d="M4.82993 0.383749C6.39891 -0.141609 8.10502 -0.12716 9.6644 0.424694C10.5208 0.737437 11.3054 1.21203 11.9733 1.82125C11.7464 2.05806 11.507 2.27938 11.2755 2.50956C10.8353 2.93819 10.3955 3.36535 9.95599 3.79102C9.51792 3.38233 8.98796 3.07916 8.40842 2.90573C7.66682 2.68733 6.87788 2.67238 6.12815 2.86251C5.37841 3.05264 4.69686 3.44052 4.15826 3.98358C3.68812 4.45005 3.33208 5.01408 3.11671 5.63354L0.764709 3.85742C1.60658 2.2291 3.06423 0.983563 4.82993 0.383749Z" fill="#E33629"/>
<path d="M0.140685 5.61694C0.26701 5.00584 0.476893 4.41404 0.764708 3.85742L3.1167 5.63797C2.80911 6.52173 2.80911 7.4798 3.1167 8.36357C2.33308 8.95376 1.54908 9.54691 0.764708 10.143C0.0444166 8.74459 -0.17526 7.15127 0.140685 5.61694Z" fill="#F8BD00"/>
<path d="M7.17653 5.68896H13.9296C14.1605 6.92499 14.098 8.19617 13.7469 9.40499C13.4238 10.5166 12.7962 11.5212 11.9316 12.311C11.1725 11.7333 10.4101 11.1601 9.65106 10.5824C10.0274 10.3349 10.3486 10.0157 10.5954 9.64416C10.8422 9.2726 11.0096 8.85626 11.0874 8.4201H7.17653C7.1754 7.51046 7.17653 6.59971 7.17653 5.68896Z" fill="#587DBD"/>
<path d="M0.763 10.1432C1.54738 9.55301 2.33138 8.95987 3.115 8.36377C3.41817 9.23158 3.99476 9.98374 4.76242 10.5128C5.24116 10.843 5.78524 11.0722 6.35991 11.1856C6.92613 11.2884 7.50692 11.2884 8.07314 11.1856C8.63774 11.0926 9.17611 10.8852 9.65362 10.577C10.4127 11.1547 11.1751 11.7279 11.9341 12.3055C11.1035 13.0422 10.0909 13.5559 8.99556 13.7962C7.78655 14.0734 6.52661 14.0601 5.32404 13.7574C4.37292 13.5097 3.4845 13.0731 2.71449 12.4749C1.89955 11.8437 1.23389 11.0483 0.763 10.1432Z" fill="#319F43"/>
</svg>
