<svg width="14" height="17" viewBox="0 0 14 17" fill="none" xmlns="http://www.w3.org/2000/svg">
<path d="M10.4267 0.00841039C10.3901 -0.031504 9.07086 0.0241661 7.92286 1.23945C6.77486 2.45369 6.95148 3.84649 6.97732 3.88221C7.00317 3.91792 8.61425 3.97359 9.64271 2.56083C10.6712 1.14807 10.4633 0.0493752 10.4267 0.00841039ZM13.9956 12.3325C13.944 12.2317 11.4918 11.0363 11.7201 8.7381C11.9484 6.43883 13.524 5.8086 13.5487 5.74032C13.5735 5.67205 12.9058 4.91053 12.1983 4.52504C11.6788 4.25325 11.1038 4.09754 10.515 4.06917C10.3987 4.06602 9.99487 3.96939 9.16456 4.19102C8.61748 4.33702 7.3844 4.80969 7.04517 4.8286C6.70486 4.8475 5.69255 4.2803 4.60378 4.13009C3.90701 3.9988 3.16824 4.26769 2.63946 4.47462C2.11177 4.68049 1.10808 5.2666 0.405921 6.82432C-0.296234 8.38098 0.0709972 10.8473 0.333767 11.614C0.596537 12.3798 1.00685 13.635 1.70469 14.5509C2.325 15.5845 3.14777 16.3019 3.49131 16.5456C3.83485 16.7893 4.80409 16.951 5.47609 16.6159C6.0167 16.2924 6.9924 16.1065 7.37794 16.1202C7.7624 16.1338 8.52056 16.2819 9.29702 16.6863C9.91194 16.8932 10.4935 16.8071 11.0761 16.576C11.6587 16.3439 12.5019 15.4637 13.4863 13.6791C13.86 12.8493 14.0301 12.4008 13.9956 12.3325Z" fill="black"/>
</svg>
