<svg width="19" height="15" viewBox="0 0 19 15" fill="none" xmlns="http://www.w3.org/2000/svg">
<path d="M1.70697 5.85348L0.999969 6.56048L0.292969 5.85348L0.999969 5.14648L1.70697 5.85348ZM18.707 13.8535C18.707 14.1187 18.6016 14.3731 18.4141 14.5606C18.2265 14.7481 17.9722 14.8535 17.707 14.8535C17.4418 14.8535 17.1874 14.7481 16.9999 14.5606C16.8123 14.3731 16.707 14.1187 16.707 13.8535H18.707ZM5.99997 11.5605L0.999969 6.56048L2.41397 5.14648L7.41397 10.1465L5.99997 11.5605ZM0.999969 5.14648L5.99997 0.146484L7.41397 1.56048L2.41397 6.56048L0.999969 5.14648ZM1.70697 4.85348H11.707V6.85348H1.70697V4.85348ZM18.707 11.8535V13.8535H16.707V11.8535H18.707ZM11.707 4.85348C13.5635 4.85348 15.344 5.59098 16.6567 6.90374C17.9695 8.21649 18.707 9.99697 18.707 11.8535H16.707C16.707 10.5274 16.1802 9.25563 15.2425 8.31795C14.3048 7.38027 13.0331 6.85348 11.707 6.85348V4.85348Z" fill="white"/>
</svg>
